# xmcd CD database file
#
# Track frame offsets:
#	150
#	14483
#	28805
#	58290
#	79980
#	97373
#	116028
#	130500
#	162778
#	177040
#
# Disc length: 2579 seconds
#
# Revision: 0
# Processed by: cddbd v1.5.2PL0 Copyright (c) Steve Scherf et al.
# Submitted via: CDex 1.70beta3
#
DISCID=860a110a
DTITLE=Itzhak Perlman(vn) Andre Previn (p) - Scott Joplin: The Easy Winners
DYEAR=1900
DGENRE=Jazz
TTITLE0=The Rag-Time Dance
TTITLE1=The Easy Winner
TTITLE2=Bethena (A Concert Waltz)
TTITLE3=Magnetic Rag
TTITLE4=The Strenuous Life (Rag-Time Two-Step)
TTITLE5=The Entertainer
TTITLE6=Elite Syncopation
TTITLE7=Solace (A Mexican Serenade)
TTITLE8=Pine Apple Rag
TTITLE9=Sugar Cane (A Rag-Time Classic Two Step)
EXTD=
EXTT0=
EXTT1=
EXTT2=
EXTT3=
EXTT4=
EXTT5=
EXTT6=
EXTT7=
EXTT8=
EXTT9=
PLAYORDER=
